<svg width="16" height="16" viewBox="0 0 16 16" fill="none" xmlns="http://www.w3.org/2000/svg">
<g clip-path="url(#clip0_14_11598)">
<path fill-rule="evenodd" clip-rule="evenodd" d="M8 15C11.866 15 15 11.866 15 8C15 4.134 11.866 1 8 1C4.134 1 1 4.134 1 8C1 11.866 4.134 15 8 15ZM8 16C12.418 16 16 12.418 16 8C16 3.582 12.418 0 8 0C3.582 0 0 3.582 0 8C0 12.418 3.582 16 8 16Z" fill="black"/>
<path d="M14.0509 2.75665C13.8015 2.4684 13.5316 2.19846 13.2434 1.94796L11.0266 4.16471L11.8353 4.97341L14.0509 2.75665ZM10.29 0.325994C10.6937 0.446097 11.0838 0.597083 11.4567 0.775522L10.1207 2.11381L9.31198 1.30397L10.29 0.325994ZM5.7169 0.323706C6.33572 0.139548 6.98656 0.0285959 7.65799 0L4.40149 3.25765L3.59165 2.44781L5.7169 0.323706ZM0 7.65685C0.0285959 6.98542 0.139548 6.33457 0.323706 5.71576L2.44781 3.59051L3.25765 4.40034L0 7.65685ZM0.776666 11.4567C0.597083 11.0826 0.444953 10.6926 0.325994 10.29L1.30397 9.30969L2.11381 10.1195L0.776666 11.4567ZM2.75665 14.0509C2.4684 13.8004 2.19846 13.5305 1.94796 13.2422L3.01973 12.1693L3.82957 12.9791L2.75665 14.0509ZM5.71004 15.6729C5.30626 15.5528 4.91621 15.4018 4.54332 15.2233L7.59508 12.1693L8.40378 12.9791L5.71004 15.6729ZM10.2831 15.6752C9.66428 15.8593 9.01344 15.9703 8.34201 15.9989L11.5985 12.7412L12.4072 13.551L10.2831 15.6752ZM16 8.34086C15.9714 9.0123 15.8605 9.66314 15.6774 10.282L13.5522 12.4072L12.7435 11.5985L16 8.34086ZM15.2245 4.54104C15.4041 4.91507 15.555 5.30512 15.674 5.70775L12.9803 8.40378L12.1716 7.59508L15.2245 4.54104ZM8.167 2.44781L8.97569 3.25651L6.68802 5.54418L5.87933 4.73434L8.167 2.44781ZM4.73549 5.87933L5.54533 6.68802L3.25765 8.97569L2.44781 8.167L4.73549 5.87933ZM9.54761 11.8353L8.73892 11.0266L11.0266 8.73892L11.8353 9.54761L9.54761 11.8353ZM9.88276 5.30626L7.59508 7.59394L8.40378 8.40378L10.6915 6.1161L9.88276 5.30626ZM4.16357 11.0255L6.45124 8.73778L7.25994 9.54761L4.97226 11.8353L4.16357 11.0255Z" fill="black"/>
</g>
<defs>
<clipPath id="clip0_14_11598">
<rect width="16" height="16" fill="white"/>
</clipPath>
</defs>
</svg>
