<svg width="12" height="12" viewBox="0 0 12 12" fill="none" xmlns="http://www.w3.org/2000/svg">
<path fill-rule="evenodd" clip-rule="evenodd" d="M6 0C2.68581 0 0 2.68581 0 6C0 9.31414 2.68581 12 6 12C9.31414 12 12 9.31414 12 6C12 2.68581 9.31414 0 6 0ZM4.75636 1.25019C5.15345 1.14545 5.57019 1.09091 6 1.09091C8.71089 1.09091 10.9091 3.28909 10.9091 6C10.9091 8.71089 8.71089 10.9091 6 10.9091C5.57019 10.9091 5.15345 10.8545 4.75636 10.7499C6.17673 9.65451 7.09091 7.93312 7.09091 6C7.09091 4.06691 6.17673 2.34655 4.75636 1.25019Z" fill="black"/>
</svg>
