<svg width="37" height="36" viewBox="0 0 37 36" fill="none" xmlns="http://www.w3.org/2000/svg">
<path d="M11.626 6.907C11.514 7.019 11.429 7.154 11.358 7.302L11.35 7.294L0.134001 32.56L0.145001 32.571C-0.0629987 32.974 0.285001 33.794 0.998001 34.508C1.711 35.221 2.531 35.569 2.934 35.361L2.944 35.371L28.21 24.154L28.202 24.145C28.349 24.075 28.484 23.99 28.597 23.876C30.159 22.314 27.626 17.249 22.941 12.563C18.254 7.877 13.189 5.345 11.626 6.907V6.907Z" fill="#DD2E44"/>
<path d="M13 11.419L0.416001 31.925L0.134001 32.56L0.145001 32.571C-0.0629987 32.974 0.285001 33.794 0.998001 34.508C1.23 34.74 1.471 34.916 1.707 35.065L17 16.419L13 11.419Z" fill="#EA596E"/>
<path d="M23.012 12.485C27.682 17.157 30.275 22.137 28.801 23.609C27.328 25.083 22.348 22.491 17.675 17.821C13.004 13.149 10.412 8.16699 11.885 6.69399C13.359 5.22099 18.339 7.81299 23.012 12.485V12.485Z" fill="#A0041E"/>
<path d="M18.59 13.028C18.391 13.189 18.131 13.273 17.856 13.243C16.988 13.149 16.258 12.847 15.747 12.37C15.206 11.865 14.939 11.187 15.012 10.508C15.14 9.316 16.336 8.222 18.375 8.442C19.168 8.527 19.522 8.272 19.534 8.15C19.548 8.029 19.257 7.704 18.464 7.618C17.596 7.524 16.866 7.222 16.354 6.745C15.813 6.24 15.545 5.562 15.619 4.883C15.749 3.691 16.944 2.597 18.981 2.818C19.559 2.88 19.864 2.761 19.993 2.684C20.096 2.621 20.137 2.561 20.141 2.526C20.153 2.405 19.866 2.08 19.071 1.994C18.522 1.934 18.124 1.442 18.185 0.891997C18.244 0.342997 18.735 -0.0540027 19.286 0.00599734C21.323 0.224997 22.259 1.548 22.13 2.741C22 3.935 20.805 5.027 18.766 4.808C18.188 4.745 17.886 4.865 17.756 4.942C17.653 5.004 17.611 5.065 17.607 5.099C17.594 5.221 17.883 5.545 18.678 5.631C20.715 5.851 21.651 7.173 21.522 8.366C21.393 9.558 20.198 10.652 18.16 10.431C17.582 10.369 17.278 10.489 17.148 10.565C17.044 10.629 17.004 10.689 17 10.723C16.987 10.844 17.276 11.169 18.07 11.255C18.618 11.315 19.017 11.808 18.956 12.357C18.928 12.631 18.789 12.868 18.59 13.028V13.028Z" fill="#AA8DD8"/>
<path d="M30.661 22.276C32.634 21.719 33.995 22.599 34.319 23.754C34.643 24.908 33.941 26.369 31.969 26.924C31.199 27.14 30.968 27.508 30.999 27.625C31.033 27.743 31.424 27.937 32.192 27.72C34.164 27.165 35.525 28.045 35.849 29.199C36.175 30.354 35.471 31.813 33.498 32.369C32.729 32.585 32.497 32.954 32.531 33.071C32.564 33.188 32.954 33.382 33.723 33.166C34.253 33.017 34.807 33.326 34.956 33.857C35.104 34.389 34.795 34.941 34.263 35.091C32.292 35.646 30.93 34.768 30.604 33.612C30.28 32.458 30.983 30.999 32.957 30.443C33.727 30.226 33.958 29.859 33.924 29.741C33.892 29.624 33.502 29.429 32.734 29.645C30.76 30.201 29.4 29.323 29.075 28.166C28.75 27.012 29.453 25.553 31.426 24.996C32.194 24.781 32.425 24.411 32.393 24.295C32.359 24.177 31.97 23.983 31.201 24.199C30.669 24.349 30.118 24.039 29.968 23.508C29.819 22.978 30.129 22.426 30.661 22.276V22.276Z" fill="#77B255"/>
<path d="M23.001 19.579C22.707 19.579 22.417 19.45 22.219 19.204C21.874 18.772 21.945 18.143 22.375 17.798C22.593 17.623 27.793 13.539 35.142 14.59C35.689 14.668 36.069 15.174 35.991 15.721C35.913 16.267 35.411 16.651 34.859 16.569C28.366 15.647 23.672 19.323 23.626 19.36C23.44 19.508 23.22 19.579 23.001 19.579V19.579Z" fill="#AA8DD8"/>
<path d="M5.754 15.419C5.659 15.419 5.562 15.405 5.466 15.377C4.937 15.218 4.637 14.661 4.796 14.132C5.929 10.359 6.956 4.33801 5.694 2.76801C5.553 2.59001 5.34 2.41501 4.852 2.45201C3.914 2.52401 4.003 4.50301 4.004 4.52301C4.046 5.07401 3.632 5.55401 3.082 5.59501C2.523 5.62901 2.051 5.223 2.01 4.672C1.907 3.293 2.336 0.637005 4.702 0.458005C5.758 0.378005 6.635 0.745005 7.254 1.515C9.625 4.466 7.218 13.021 6.712 14.707C6.582 15.14 6.184 15.419 5.754 15.419Z" fill="#77B255"/>
<path d="M25.5 10.419C26.3284 10.419 27 9.74743 27 8.91901C27 8.09058 26.3284 7.41901 25.5 7.41901C24.6716 7.41901 24 8.09058 24 8.91901C24 9.74743 24.6716 10.419 25.5 10.419Z" fill="#5C913B"/>
<path d="M2 19.419C3.10457 19.419 4 18.5236 4 17.419C4 16.3144 3.10457 15.419 2 15.419C0.89543 15.419 0 16.3144 0 17.419C0 18.5236 0.89543 19.419 2 19.419Z" fill="#9266CC"/>
<path d="M32.5 20.419C33.3284 20.419 34 19.7474 34 18.919C34 18.0906 33.3284 17.419 32.5 17.419C31.6716 17.419 31 18.0906 31 18.919C31 19.7474 31.6716 20.419 32.5 20.419Z" fill="#5C913B"/>
<path d="M23.5 32.419C24.3284 32.419 25 31.7474 25 30.919C25 30.0906 24.3284 29.419 23.5 29.419C22.6716 29.419 22 30.0906 22 30.919C22 31.7474 22.6716 32.419 23.5 32.419Z" fill="#5C913B"/>
<path d="M28 5.41901C29.1046 5.41901 30 4.52358 30 3.41901C30 2.31444 29.1046 1.41901 28 1.41901C26.8954 1.41901 26 2.31444 26 3.41901C26 4.52358 26.8954 5.41901 28 5.41901Z" fill="#FFCC4D"/>
<path d="M32.5 9.41901C33.3284 9.41901 34 8.74743 34 7.91901C34 7.09058 33.3284 6.41901 32.5 6.41901C31.6716 6.41901 31 7.09058 31 7.91901C31 8.74743 31.6716 9.41901 32.5 9.41901Z" fill="#FFCC4D"/>
<path d="M29.5 13.419C30.3284 13.419 31 12.7474 31 11.919C31 11.0906 30.3284 10.419 29.5 10.419C28.6716 10.419 28 11.0906 28 11.919C28 12.7474 28.6716 13.419 29.5 13.419Z" fill="#FFCC4D"/>
<path d="M7.5 24.419C8.32843 24.419 9 23.7474 9 22.919C9 22.0906 8.32843 21.419 7.5 21.419C6.67157 21.419 6 22.0906 6 22.919C6 23.7474 6.67157 24.419 7.5 24.419Z" fill="#FFCC4D"/>
</svg>
