<svg width="16" height="16" viewBox="0 0 16 16" fill="none" xmlns="http://www.w3.org/2000/svg">
<g clip-path="url(#clip0_14_11605)">
<path fill-rule="evenodd" clip-rule="evenodd" d="M8 12.6061C11.3008 12.6061 13.9761 10.0015 13.9761 6.78788C13.9761 3.5743 11.3008 0.969697 8 0.969697C4.6992 0.969697 2.0239 3.5743 2.0239 6.78788C2.0239 10.0015 4.6992 12.6061 8 12.6061ZM8 13.5758C11.8506 13.5758 14.9721 10.5367 14.9721 6.78788C14.9721 3.03903 11.8506 0 8 0C4.1494 0 1.02789 3.03903 1.02789 6.78788C1.02789 10.5367 4.1494 13.5758 8 13.5758ZM1.28884 11.8138C2.83765 13.7697 5.26693 15.0303 8 15.0303C10.7321 15.0303 13.1624 13.7697 14.7112 11.8138L15.5 12.4053C13.7699 14.591 11.0538 16 8 16C4.94622 16 2.23008 14.591 0.5 12.4053L1.28884 11.8138Z" fill="black"/>
</g>
<defs>
<clipPath id="clip0_14_11605">
<rect width="16" height="16" fill="white"/>
</clipPath>
</defs>
</svg>
