<svg width="12" height="12" viewBox="0 0 12 12" fill="none" xmlns="http://www.w3.org/2000/svg">
<path d="M6.375 0.375H5.625V2.625H6.375V0.375ZM2.2875 1.75725L1.75725 2.2875L3.34875 3.879L3.879 3.348L2.2875 1.758V1.75725ZM10.2427 2.2875L9.7125 1.75725L8.12175 3.348L8.652 3.879L10.2427 2.2875V2.2875ZM0.375 5.625V6.375H2.625V5.625H0.375ZM9.375 5.625V6.375H11.625V5.625H9.375ZM3.879 8.652L3.34875 8.121L1.75725 9.7125L2.2875 10.2427L3.879 8.652ZM8.65125 8.121L8.121 8.652L9.7125 10.242L10.2427 9.7125L8.65125 8.121ZM6.375 9.375H5.625V11.625H6.375V9.375Z" fill="black"/>
<path fill-rule="evenodd" clip-rule="evenodd" d="M7.8735 5.9985C7.8735 7.0335 7.0335 7.8735 5.9985 7.8735C4.9635 7.8735 4.1235 7.0335 4.1235 5.9985C4.1235 4.9635 4.9635 4.1235 5.9985 4.1235C7.0335 4.1235 7.8735 4.9635 7.8735 5.9985V5.9985ZM7.1235 5.9985C7.1235 6.6195 6.6195 7.1235 5.9985 7.1235C5.37675 7.1235 4.8735 6.6195 4.8735 5.9985C4.8735 5.37675 5.37675 4.8735 5.9985 4.8735C6.6195 4.8735 7.1235 5.37675 7.1235 5.9985V5.9985Z" fill="black"/>
</svg>
