<svg width="12" height="12" viewBox="0 0 12 12" fill="none" xmlns="http://www.w3.org/2000/svg">
<path fill-rule="evenodd" clip-rule="evenodd" d="M5.71523 0L2.3792 3.5107C1.45973 4.4805 1 5.77315 1 7.0154C1 8.25885 1.45973 9.57071 2.3792 10.5393C3.29867 11.5091 4.50695 12 5.71523 12C6.92351 12 8.13178 11.5091 9.05125 10.5393C9.97072 9.57071 10.4305 8.25885 10.4305 7.0166C10.4305 5.77315 9.97072 4.4805 9.05125 3.5119L5.71523 0ZM5.71523 1.72595L8.20251 4.34487C8.89801 5.07702 9.25165 6.06361 9.25165 7.0166C9.25165 7.97319 8.89329 8.9778 8.20251 9.70514C7.5082 10.4373 6.60759 10.7998 5.71523 10.7998C4.82287 10.7998 3.92226 10.4385 3.22795 9.70634C2.53599 8.9778 2.17881 7.97319 2.17881 7.0166C2.17881 6.06361 2.53363 5.07581 3.22795 4.34487C3.22677 4.34487 3.22795 4.34487 3.22795 4.34487L5.71523 1.72595Z" fill="black"/>
</svg>
