<svg width="16" height="16" viewBox="0 0 16 16" fill="none" xmlns="http://www.w3.org/2000/svg">
<g clip-path="url(#clip0_14_11601)">
<path fill-rule="evenodd" clip-rule="evenodd" d="M8 15C11.866 15 15 11.866 15 8C15 4.134 11.866 1 8 1C4.134 1 1 4.134 1 8C1 11.866 4.134 15 8 15ZM8 16C12.418 16 16 12.418 16 8C16 3.582 12.418 0 8 0C3.582 0 0 3.582 0 8C0 12.418 3.582 16 8 16ZM4.433 5.256C5.256 4.188 6.548 3.5 8 3.5C9.452 3.5 10.744 4.188 11.567 5.256L12.36 4.646C11.354 3.341 9.775 2.5 8 2.5C6.225 2.5 4.646 3.341 3.64 4.646L4.433 5.256Z" fill="black"/>
</g>
<defs>
<clipPath id="clip0_14_11601">
<rect width="16" height="16" fill="white"/>
</clipPath>
</defs>
</svg>
