<svg width="16" height="16" viewBox="0 0 16 16" fill="none" xmlns="http://www.w3.org/2000/svg">
<g clip-path="url(#clip0_14_11585)">
<path d="M4.43793 0.733249L2.58508 2.58508L3.30114 3.30114L6.56587 0.0353981C5.81542 0.169911 5.10139 0.407585 4.43793 0.733249ZM9.21669 0L6.63161 2.58508L7.34665 3.30114L10.3808 0.264981C10.0046 0.148673 9.61517 0.0596713 9.2177 0H9.21669ZM12.1871 1.07509L10.6761 2.58508L11.3922 3.30114L13.0306 1.66271C12.7626 1.45032 12.4804 1.25209 12.1871 1.07509ZM14.3373 2.96941L11.6875 5.61922L12.4035 6.33527L14.9249 3.8129C14.7469 3.5196 14.5497 3.23742 14.3373 2.96941ZM15.735 5.61922L12.6989 8.65335L13.4149 9.36941L16 6.78331C15.9393 6.38483 15.8503 5.99646 15.735 5.61922ZM15.9646 9.43413L13.7102 11.6885L14.4263 12.4035L15.2657 11.5621C15.5924 10.8986 15.8311 10.1846 15.9646 9.43413ZM11.5621 15.2668L13.4149 13.4149L12.6989 12.6999L9.43413 15.9646C10.1846 15.8301 10.8986 15.5924 11.5621 15.2668ZM6.78331 16L9.36839 13.4149L8.65335 12.6999L5.61922 15.734C5.99545 15.8513 6.38483 15.9403 6.7823 16H6.78331ZM3.8129 14.9249L5.32389 13.4149L4.60784 12.6999L2.96941 14.3383C3.23742 14.5507 3.5196 14.7469 3.8129 14.9249ZM1.66271 13.0306L3.80683 10.8865L3.09077 10.1714L1.07509 12.1871C1.2531 12.4804 1.4493 12.7626 1.66169 13.0306H1.66271ZM0.264981 10.3808L3.30114 7.34665L2.58508 6.63161L0 9.21669C0.0606827 9.61517 0.149684 10.0035 0.264981 10.3808ZM0.0353981 6.56587L2.28976 4.31252L1.5737 3.59646L0.73426 4.43793C0.407585 5.10139 0.1689 5.81542 0.0353981 6.56587ZM9.8751 4.8182L9.16005 4.10215L7.1373 6.12491L7.85234 6.84096L9.8751 4.8182ZM6.12592 7.1373L4.10316 9.16005L4.8182 9.8751L6.84096 7.85234L6.12592 7.1373ZM9.66574 11.6885L10.3808 12.4035L12.4035 10.3808L11.6875 9.66574L9.66473 11.6885H9.66574ZM8.65436 8.65436L10.6771 6.63161L11.3922 7.34665L9.36941 9.36941L8.65436 8.65436ZM7.64298 9.66574L5.62023 11.6885L6.33527 12.4035L8.35803 10.3808L7.64298 9.66574ZM5.62023 3.59747L3.59747 5.62023L4.31252 6.33527L6.33527 4.31252L5.61922 3.59646L5.62023 3.59747Z" fill="black"/>
</g>
<defs>
<clipPath id="clip0_14_11585">
<rect width="16" height="16" fill="white"/>
</clipPath>
</defs>
</svg>
