<svg width="32" height="24" viewBox="0 0 32 24" fill="none" xmlns="http://www.w3.org/2000/svg">
<path fill-rule="evenodd" clip-rule="evenodd" d="M14.5822 22.656C14.7869 22.8675 15.0633 23 15.3575 23H16.6523C16.945 23 17.2201 22.8689 17.4244 22.6594C17.8499 22.223 18.3355 21.8389 18.8694 21.5183C21.4794 19.9587 25.9371 19.8737 28.3741 21.7155H30C30.5523 21.7155 31 21.2677 31 20.7155V5.07072C31 5.07072 29.5935 1 23.2 1C19.8912 1 18.0788 2.08914 17.1012 3.14211C16.4147 3.87845 16.1394 4.5949 16.0424 4.9079H15.9559C15.8606 4.5949 15.5853 3.87664 14.8988 3.14211C13.9212 2.08914 12.1088 1 8.8 1C2.40647 1 1 5.07072 1 5.07072V20.6974C1 21.2497 1.44772 21.6974 2 21.6974H3.62588C6.06471 19.8538 10.5259 19.9424 13.1341 21.5074C13.6693 21.8294 14.1562 22.216 14.5822 22.656ZM16.8824 5.43076V20.7313C17.2265 20.4454 17.5935 20.1885 17.98 19.9569C19.6159 18.9781 21.7124 18.5168 23.6994 18.5331C25.4747 18.5475 27.3718 18.9438 28.9088 19.9063H29.2353V5.48141L29.1824 5.39095C29.0306 5.14128 28.7659 4.77763 28.3441 4.40493C27.5324 3.68668 25.9971 2.80921 23.2 2.80921C20.4012 2.80921 19.0706 3.68487 18.4459 4.3199C18.1124 4.65641 17.9235 4.98388 17.8229 5.20641C17.77 5.31678 17.7418 5.4 17.7294 5.44342L17.7206 5.47418L17.7224 5.46332L17.7259 5.44885V5.4398L17.7276 5.43618V5.43257L17.7188 5.43076H16.8824ZM15.1176 5.43076H14.2812L14.2706 5.43257V5.43618L14.2724 5.4398L14.2741 5.44885L14.2776 5.46332C14.2776 5.46332 14.279 5.4699 14.2794 5.47418C14.2807 5.48663 14.2706 5.44342 14.2706 5.44342C14.2582 5.4 14.2282 5.31678 14.1771 5.20641C14.0765 4.98388 13.8876 4.65641 13.5541 4.3199C12.9294 3.68487 11.5988 2.80921 8.8 2.80921C6.00294 2.80921 4.46765 3.68668 3.65412 4.40493C3.23412 4.77763 2.96941 5.14128 2.81765 5.39095L2.76471 5.48141V19.8882H3.09118C4.63 18.9257 6.52882 18.5276 8.30412 18.515C10.2947 18.5005 12.3912 18.9655 14.0271 19.9479C14.41 20.1776 14.7753 20.4363 15.1176 20.7186V5.43257V5.43076Z" fill="#152FA3"/>
</svg>
