<svg width="16" height="16" viewBox="0 0 16 16" fill="none" xmlns="http://www.w3.org/2000/svg">
<g clip-path="url(#clip0_3521_8256)">
<path fill-rule="evenodd" clip-rule="evenodd" d="M7.44268 13.1428H8.5609C8.80979 12.8685 9.10846 12.6311 9.44535 12.4408C10.76 11.702 13.0053 11.6617 14.2329 12.5343H15.5556V4.64854C15.5556 4.64854 14.8471 2.71997 11.6267 2.71997C9.96001 2.71997 9.04712 3.23597 8.55468 3.73483C8.2089 4.08369 8.07024 4.42311 8.02135 4.5714H7.97779C7.92979 4.42311 7.79112 4.08283 7.44535 3.73483C6.9529 3.23597 6.04001 2.71997 4.37335 2.71997C1.1529 2.71997 0.444458 4.64854 0.444458 4.64854V12.5257H1.76712C2.99557 11.6523 5.24268 11.6943 6.55646 12.4357C6.89424 12.6268 7.19379 12.866 7.44268 13.1428V13.1428ZM8.44446 4.81911V12.068C8.61779 11.9325 8.80268 11.8108 8.99735 11.7011C9.82135 11.2374 10.8773 11.0188 11.8782 11.0265C12.7725 11.0334 13.728 11.2211 14.5022 11.6771H14.6667V4.84311L14.64 4.80026C14.5636 4.68197 14.4302 4.50968 14.2178 4.33311C13.8089 3.99283 13.0356 3.57711 11.6267 3.57711C10.2169 3.57711 9.54668 3.99197 9.23201 4.29283C9.06401 4.45226 8.9689 4.6074 8.91824 4.71283C8.89157 4.76511 8.87735 4.80454 8.87112 4.82511L8.86668 4.83969L8.86757 4.83454L8.86935 4.82769V4.8234L8.87024 4.82169V4.81997L8.86579 4.81911H8.44446ZM7.55557 4.81911H7.13424L7.1289 4.81997V4.82169L7.12979 4.8234L7.13068 4.82769L7.13246 4.83454L7.13335 4.83969C7.13335 4.84054 7.13335 4.8354 7.1289 4.82511C7.12268 4.80454 7.10757 4.76511 7.08179 4.71283C7.03112 4.6074 6.93601 4.45226 6.76801 4.29283C6.45335 3.99197 5.78312 3.57711 4.37335 3.57711C2.96446 3.57711 2.19112 3.99283 1.78135 4.33311C1.56979 4.50968 1.43646 4.68197 1.36001 4.80026L1.33335 4.84311V11.6685H1.49779C2.2729 11.2125 3.22935 11.024 4.12357 11.018C5.12624 11.0111 6.18224 11.2314 7.00624 11.6968C7.19912 11.8057 7.38312 11.9283 7.55557 12.062V4.81997V4.81911Z" fill="black"/>
</g>
<defs>
<clipPath id="clip0_3521_8256">
<rect width="16" height="12" fill="white" transform="translate(0 2)"/>
</clipPath>
</defs>
</svg>
