<svg width="16" height="16" viewBox="0 0 16 16" fill="none" xmlns="http://www.w3.org/2000/svg">
<g clip-path="url(#clip0_62_8672)">
<path d="M10 7C10 7.53043 9.78929 8.03914 9.41421 8.41421C9.03914 8.78929 8.53043 9 8 9C7.46957 9 6.96086 8.78929 6.58579 8.41421C6.21071 8.03914 6 7.53043 6 7C6 6.46957 6.21071 5.96086 6.58579 5.58579C6.96086 5.21071 7.46957 5 8 5C8.53043 5 9.03914 5.21071 9.41421 5.58579C9.78929 5.96086 10 6.46957 10 7Z" stroke="black" stroke-linecap="round" stroke-linejoin="round"/>
<path d="M13 7C13 11.7613 8 14.5 8 14.5C8 14.5 3 11.7613 3 7C3 5.67392 3.52678 4.40215 4.46447 3.46447C5.40215 2.52678 6.67392 2 8 2C9.32608 2 10.5979 2.52678 11.5355 3.46447C12.4732 4.40215 13 5.67392 13 7Z" stroke="black" stroke-linecap="round" stroke-linejoin="round"/>
</g>
<defs>
<clipPath id="clip0_62_8672">
<rect width="16" height="16" fill="white"/>
</clipPath>
</defs>
</svg>
