<svg width="64" height="64" viewBox="0 0 64 64" fill="none" xmlns="http://www.w3.org/2000/svg">
<g filter="url(#filter0_b_2196_8084)">
<path d="M48 0H16C7.16344 0 0 7.16344 0 16V48C0 56.8366 7.16344 64 16 64H48C56.8366 64 64 56.8366 64 48V16C64 7.16344 56.8366 0 48 0Z" fill="white" fill-opacity="0.2"/>
</g>
<path d="M48 10H39.6922C36.3785 10 33.6922 12.6863 33.6922 16V24.3077C33.6922 27.6214 36.3785 30.3077 39.6922 30.3077H48C51.3137 30.3077 54 27.6214 54 24.3077V16C54 12.6863 51.3137 10 48 10Z" fill="white"/>
<path d="M42.577 21.9181L40.8127 20.1539L40.2119 20.7504L42.577 23.1154L47.6539 18.0385L47.0574 17.442L42.577 21.9181Z" fill="#333333"/>
<path d="M48 33.6923H39.6922C36.3785 33.6923 33.6922 36.3786 33.6922 39.6923V48C33.6922 51.3137 36.3785 54 39.6922 54H48C51.3137 54 54 51.3137 54 48V39.6923C54 36.3786 51.3137 33.6923 48 33.6923Z" fill="white"/>
<path d="M42.577 45.6104L40.8127 43.8462L40.2119 44.4427L42.577 46.8077L47.6539 41.7308L47.0574 41.1342L42.577 45.6104Z" fill="#333333"/>
<path d="M24.3077 33.6923H16C12.6863 33.6923 10 36.3786 10 39.6923V48C10 51.3137 12.6863 54 16 54H24.3077C27.6214 54 30.3077 51.3137 30.3077 48V39.6923C30.3077 36.3786 27.6214 33.6923 24.3077 33.6923Z" fill="white"/>
<path d="M18.8846 45.6104L17.1203 43.8462L16.5196 44.4427L18.8846 46.8077L23.9615 41.7308L23.365 41.1342L18.8846 45.6104Z" fill="#333333"/>
<path d="M26.3077 10H14C11.7909 10 10 11.7909 10 14V26.3077C10 28.5168 11.7909 30.3077 14 30.3077H26.3077C28.5168 30.3077 30.3077 28.5168 30.3077 26.3077V14C30.3077 11.7909 28.5168 10 26.3077 10Z" fill="#FE6262"/>
<path d="M22.8615 16.7692L20.1538 19.4769L17.4461 16.7692L16.7692 17.4461L19.4769 20.1538L16.7692 22.8615L17.4461 23.5384L20.1538 20.8308L22.8615 23.5384L23.5384 22.8615L20.8307 20.1538L23.5384 17.4461L22.8615 16.7692Z" fill="white"/>
<defs>
<filter id="filter0_b_2196_8084" x="-10" y="-10" width="84" height="84" filterUnits="userSpaceOnUse" color-interpolation-filters="sRGB">
<feFlood flood-opacity="0" result="BackgroundImageFix"/>
<feGaussianBlur in="BackgroundImage" stdDeviation="5"/>
<feComposite in2="SourceAlpha" operator="in" result="effect1_backgroundBlur_2196_8084"/>
<feBlend mode="normal" in="SourceGraphic" in2="effect1_backgroundBlur_2196_8084" result="shape"/>
</filter>
</defs>
</svg>
