<svg width="64" height="64" viewBox="0 0 64 64" fill="none" xmlns="http://www.w3.org/2000/svg">
<g filter="url(#filter0_b_2234_7059)">
<path d="M48 0H16C7.16347 0 0 7.16347 0 16V48C0 56.8368 7.16347 64 16 64H48C56.8368 64 64 56.8368 64 48V16C64 7.16347 56.8368 0 48 0Z" fill="white" fill-opacity="0.3"/>
</g>
<path d="M47.9999 10H39.6923C36.3786 10 33.6923 12.6863 33.6923 16V24.3077C33.6923 27.6214 36.3786 30.3077 39.6923 30.3077H47.9999C51.3137 30.3077 54 27.6214 54 24.3077V16C54 12.6863 51.3137 10 47.9999 10Z" fill="white"/>
<path d="M42.5769 21.9181L40.8127 20.1539L40.2119 20.7504L42.5769 23.1154L47.6539 18.0385L47.0573 17.4419L42.5769 21.9181Z" fill="#333333"/>
<path d="M47.9999 33.6923H39.6923C36.3786 33.6923 33.6923 36.3786 33.6923 39.6923V48C33.6923 51.3137 36.3786 54 39.6923 54H47.9999C51.3137 54 54 51.3137 54 48V39.6923C54 36.3786 51.3137 33.6923 47.9999 33.6923Z" fill="white"/>
<path d="M42.5769 45.6104L40.8127 43.8462L40.2119 44.4427L42.5769 46.8077L47.6539 41.7307L47.0573 41.1342L42.5769 45.6104Z" fill="#333333"/>
<path d="M24.3077 33.6923H16C12.6863 33.6923 10 36.3786 10 39.6923V48C10 51.3137 12.6863 54 16 54H24.3077C27.6214 54 30.3077 51.3137 30.3077 48V39.6923C30.3077 36.3786 27.6214 33.6923 24.3077 33.6923Z" fill="white"/>
<path d="M18.8846 45.6104L17.1203 43.8462L16.5196 44.4427L18.8846 46.8077L23.9615 41.7307L23.365 41.1342L18.8846 45.6104Z" fill="#333333"/>
<path d="M24.3077 10H16C12.6863 10 10 12.6863 10 16V24.3077C10 27.6214 12.6863 30.3077 16 30.3077H24.3077C27.6214 30.3077 30.3077 27.6214 30.3077 24.3077V16C30.3077 12.6863 27.6214 10 24.3077 10Z" fill="#FE6262"/>
<path d="M22.8615 16.7693L20.1539 19.477L17.4461 16.7693L16.7693 17.4462L19.4769 20.1539L16.7693 22.8616L17.4461 23.5385L20.1539 20.8308L22.8615 23.5385L23.5385 22.8616L20.8308 20.1539L23.5385 17.4462L22.8615 16.7693Z" fill="white"/>
<defs>
<filter id="filter0_b_2234_7059" x="-20" y="-20" width="104" height="104" filterUnits="userSpaceOnUse" color-interpolation-filters="sRGB">
<feFlood flood-opacity="0" result="BackgroundImageFix"/>
<feGaussianBlur in="BackgroundImage" stdDeviation="10"/>
<feComposite in2="SourceAlpha" operator="in" result="effect1_backgroundBlur_2234_7059"/>
<feBlend mode="normal" in="SourceGraphic" in2="effect1_backgroundBlur_2234_7059" result="shape"/>
</filter>
</defs>
</svg>
