<svg width="133" height="68" viewBox="0 0 133 68" fill="none" xmlns="http://www.w3.org/2000/svg">
<path fill-rule="evenodd" clip-rule="evenodd" d="M68 64.7589L64.7589 68L45.2021 48.4433C40.4228 52.4901 34.2289 54.9347 27.4673 54.9347C12.2962 54.9347 0 42.6385 0 27.4673C0 12.2962 12.2962 0 27.4673 0C42.6385 0 54.9347 12.2962 54.9347 27.4673C54.9347 34.2289 52.4901 40.4228 48.4433 45.2021L68 64.7589ZM27.4673 50.3568C40.1069 50.3568 50.3568 40.1069 50.3568 27.4673C50.3568 14.8278 40.1069 4.57789 27.4673 4.57789C14.8278 4.57789 4.57789 14.8278 4.57789 27.4673C4.57789 40.1069 14.8278 50.3568 27.4673 50.3568ZM58.9999 27.5C58.9999 28.683 58.9347 29.8508 58.8077 31H99.0001C99.5524 31 100 30.5523 100 30V27C100 26.4477 99.5524 26 99.0001 26H58.9648C58.9881 26.4971 58.9999 26.9972 58.9999 27.5ZM42.8738 0C45.3172 1.36893 47.5595 3.05407 49.5453 5H85.0001C85.5524 5 86.0001 4.55228 86.0001 4V1C86.0001 0.447716 85.5524 0 85.0001 0H42.8738ZM55.4715 13C56.2984 14.592 56.9935 16.2635 57.5421 18H76.0001C76.5524 18 77.0001 17.5523 77.0001 17V14C77.0001 13.4477 76.5524 13 76.0001 13H55.4715ZM56.8347 39C56.1488 40.7483 55.3112 42.4203 54.3379 44H85.0001C85.5524 44 86.0001 43.5523 86.0001 43V40C86.0001 39.4477 85.5524 39 85.0001 39H56.8347ZM94.0001 1C94.0001 0.447716 94.4478 0 95.0001 0H107C107.552 0 108 0.447716 108 1V4C108 4.55228 107.552 5 107 5H95.0001C94.4478 5 94.0001 4.55228 94.0001 4V1ZM73.0001 52H60.2414L65.2414 57H73.0001C73.5524 57 74.0001 56.5523 74.0001 56V53C74.0001 52.4477 73.5524 52 73.0001 52ZM83.0001 52C82.4478 52 82.0001 52.4477 82.0001 53V56C82.0001 56.5523 82.4478 57 83.0001 57H105C105.552 57 106 56.5523 106 56V53C106 52.4477 105.552 52 105 52H83.0001ZM95 39C94.4477 39 94 39.4477 94 40V43C94 43.5523 94.4477 44 95 44H132C132.552 44 133 43.5523 133 43V40C133 39.4477 132.552 39 132 39H95ZM86.0001 13C85.4478 13 85.0001 13.4477 85.0001 14V17C85.0001 17.5523 85.4478 18 86.0001 18H124C124.552 18 125 17.5523 125 17V14C125 13.4477 124.552 13 124 13H86.0001ZM109 26C108.448 26 108 26.4477 108 27V30C108 30.5523 108.448 31 109 31H117C117.552 31 118 30.5523 118 30V27C118 26.4477 117.552 26 117 26H109Z" fill="#2C2C2C"/>
</svg>
