<svg width="14" height="14" viewBox="0 0 14 14" fill="none" xmlns="http://www.w3.org/2000/svg">
<g clip-path="url(#clip0)">
<path d="M12.8426 8.94932C12.8426 9.7567 12.188 10.4113 11.3806 10.4113H1.8358L3.76073 8.48638L3.07162 7.79726L0.314802 10.5541C0.124558 10.7444 0.124558 11.0528 0.314802 11.2432L3.07162 14L3.76073 13.3109L1.8358 11.386H11.3806C12.7256 11.3843 13.8156 10.2944 13.8173 8.94932V7H12.8426V8.94932Z" fill="black"/>
<path d="M1.14669 5.05069C1.14669 4.24319 1.80118 3.5887 2.60867 3.5887H12.1535L10.2286 5.51363L10.9177 6.20274L13.6745 3.44593C13.8647 3.25557 13.8647 2.94718 13.6745 2.75681L10.9177 0L10.2286 0.689114L12.1535 2.61404H2.60867C1.26364 2.61559 0.173574 3.70565 0.172028 5.05069V7.00001H1.14669V5.05069Z" fill="black"/>
</g>
<defs>
<clipPath id="clip0">
<rect width="14" height="14" fill="white"/>
</clipPath>
</defs>
</svg>
