<svg width="12" height="14" viewBox="0 0 12 14" fill="none" xmlns="http://www.w3.org/2000/svg">
<path fill-rule="evenodd" clip-rule="evenodd" d="M2 7.05V0H3V7.05C4.1411 7.2816 5 8.2905 5 9.5C5 10.7095 4.1411 11.7184 3 11.95V14H2V11.95C0.8589 11.7184 0 10.7095 0 9.5C0 8.2905 0.8589 7.2816 2 7.05ZM4 9.5C4 10.3284 3.3284 11 2.5 11C1.6716 11 1 10.3284 1 9.5C1 8.6716 1.6716 8 2.5 8C3.3284 8 4 8.6716 4 9.5Z" fill="#333333"/>
<path fill-rule="evenodd" clip-rule="evenodd" d="M9 14H10V6.95C11.1411 6.7184 12 5.7095 12 4.5C12 3.2905 11.1411 2.2816 10 2.05V0H9V2.05C7.8589 2.2816 7 3.2905 7 4.5C7 5.7095 7.8589 6.7184 9 6.95V14ZM11 4.5C11 3.6716 10.3284 3 9.5 3C8.6716 3 8 3.6716 8 4.5C8 5.3284 8.6716 6 9.5 6C10.3284 6 11 5.3284 11 4.5Z" fill="#333333"/>
</svg>
