<svg width="32" height="32" viewBox="0 0 32 32" fill="none" xmlns="http://www.w3.org/2000/svg">
<path d="M15.9998 24C12.2722 24 9.13995 21.4504 8.25195 18H10.3412C11.165 20.3304 13.3874 22 15.9998 22C18.6124 22 20.8348 20.3304 21.6584 18H23.7478C22.8598 21.4504 19.7276 24 15.9998 24Z" fill="white"/>
<path d="M23 12.25C23 13.2164 22.2164 14 21.25 14C20.2836 14 19.5 13.2164 19.5 12.25C19.5 11.2836 20.2836 10.5 21.25 10.5C22.2164 10.5 23 11.2836 23 12.25Z" fill="white"/>
<path d="M10.25 14C11.2164 14 12 13.2164 12 12.25C12 11.2836 11.2164 10.5 10.25 10.5C9.2836 10.5 8.5 11.2836 8.5 12.25C8.5 13.2164 9.2836 14 10.25 14Z" fill="white"/>
<path fill-rule="evenodd" clip-rule="evenodd" d="M32 16C32 24.8366 24.8366 32 16 32C7.1634 32 0 24.8366 0 16C0 7.1634 7.1634 0 16 0C24.8366 0 32 7.1634 32 16ZM30 16C30 23.732 23.732 30 16 30C8.268 30 2 23.732 2 16C2 8.268 8.268 2 16 2C23.732 2 30 8.268 30 16Z" fill="white"/>
</svg>
