<svg width="12" height="12" viewBox="0 0 12 12" fill="none" xmlns="http://www.w3.org/2000/svg">
<path d="M4.1847 8.25625C3.93843 8.17416 3.93843 7.82583 4.1847 7.74374L5.13495 7.42699L6.34147 7.02482C6.66411 6.91727 6.91728 6.6641 7.02482 6.34147L7.42699 5.13495L7.74374 4.1847C7.82583 3.93843 8.17417 3.93843 8.25626 4.1847L8.57304 5.13495L8.97519 6.34147C9.08275 6.6641 9.33591 6.91727 9.65854 7.02482L10.8651 7.42699L11.8153 7.74374C12.0616 7.82583 12.0616 8.17416 11.8153 8.25625L10.8651 8.57303L9.65854 8.97518C9.33591 9.08274 9.08275 9.3359 8.97519 9.65853L8.57304 10.865L8.25626 11.8153C8.17417 12.0616 7.82583 12.0616 7.74374 11.8153L7.42699 10.865L7.02482 9.65853C6.91728 9.3359 6.66411 9.08274 6.34147 8.97518L5.13495 8.57303L4.1847 8.25625Z" fill="#06D6A0"/>
<path d="M0.115435 2.66016C-0.0384785 2.60885 -0.0384785 2.39114 0.115435 2.33984L0.709347 2.14187L1.46342 1.89051C1.66507 1.8233 1.8233 1.66506 1.89051 1.46342L2.14187 0.709346L2.33984 0.115435C2.39115 -0.0384785 2.60886 -0.0384785 2.66016 0.115435L2.85815 0.709346L3.10949 1.46342C3.17672 1.66506 3.33494 1.8233 3.53659 1.89051L4.29066 2.14187L4.88455 2.33984C5.03848 2.39114 5.03848 2.60885 4.88455 2.66016L4.29066 2.85814L3.53659 3.10949C3.33494 3.17671 3.17672 3.33494 3.10949 3.53658L2.85815 4.29065L2.66016 4.88457C2.60886 5.03848 2.39115 5.03848 2.33984 4.88457L2.14187 4.29065L1.89051 3.53658C1.8233 3.33494 1.66507 3.17671 1.46342 3.10949L0.709347 2.85814L0.115435 2.66016Z" fill="#06D6A0"/>
</svg>
