<svg width="12" height="12" viewBox="0 0 12 12" fill="none" xmlns="http://www.w3.org/2000/svg">
<path d="M4.16161 7.72422C3.94613 7.65239 3.94613 7.3476 4.16161 7.27577L4.99309 6.99861L6.04879 6.64672C6.33109 6.55261 6.55262 6.33109 6.64672 6.04878L6.99862 4.99308L7.27578 4.16161C7.3476 3.94613 7.6524 3.94613 7.72423 4.16161L8.00141 4.99308L8.35329 6.04878C8.44741 6.33109 8.66892 6.55261 8.95122 6.64672L10.0069 6.99861L10.8384 7.27577C11.0539 7.3476 11.0539 7.65239 10.8384 7.72422L10.0069 8.0014L8.95122 8.35328C8.66892 8.4474 8.44741 8.66891 8.35329 8.95121L8.00141 10.0069L7.72423 10.8384C7.6524 11.0539 7.3476 11.0539 7.27578 10.8384L6.99862 10.0069L6.64672 8.95121C6.55262 8.66891 6.33109 8.4474 6.04879 8.35328L4.99309 8.0014L4.16161 7.72422Z" fill="white"/>
<path d="M0.115435 2.66016C-0.0384785 2.60885 -0.0384785 2.39114 0.115435 2.33984L0.709347 2.14187L1.46342 1.89051C1.66507 1.8233 1.8233 1.66506 1.89051 1.46342L2.14187 0.709346L2.33984 0.115435C2.39115 -0.0384784 2.60886 -0.0384784 2.66016 0.115435L2.85815 0.709346L3.10949 1.46342C3.17672 1.66506 3.33494 1.8233 3.53659 1.89051L4.29066 2.14187L4.88455 2.33984C5.03848 2.39114 5.03848 2.60885 4.88455 2.66016L4.29066 2.85814L3.53659 3.10949C3.33494 3.17671 3.17672 3.33494 3.10949 3.53658L2.85815 4.29065L2.66016 4.88457C2.60886 5.03848 2.39115 5.03848 2.33984 4.88457L2.14187 4.29065L1.89051 3.53658C1.8233 3.33494 1.66507 3.17671 1.46342 3.10949L0.709347 2.85814L0.115435 2.66016Z" fill="white"/>
</svg>
