<svg width="12" height="12" viewBox="0 0 12 12" fill="none" xmlns="http://www.w3.org/2000/svg">
<path d="M2.52124 1.98777L7.57958 3.43281L7.58865 3.43587L7.59698 3.43815C9.06829 3.81993 10.1519 5.15927 10.1519 6.75111C10.1543 7.13367 10.1041 7.44473 9.99186 7.79078L9.85146 8.23192L10.1777 8.55892L11.593 9.97815L9.98423 11.5913L8.58194 10.1865L8.25188 9.85566L7.80795 10.0025C7.45207 10.1219 7.13185 10.1759 6.73725 10.1736C5.08986 10.1736 3.71336 9.00306 3.39314 7.44626L3.38706 7.41812L3.37947 7.38998L1.98932 2.53005L5.70981 6.25903C5.63848 6.40887 5.59903 6.57465 5.59903 6.75111C5.59903 7.38085 6.10895 7.89195 6.73725 7.89195C7.36557 7.89195 7.87552 7.38085 7.87552 6.75111C7.87552 6.12137 7.36557 5.61027 6.73725 5.61027C6.56121 5.61027 6.39579 5.64982 6.2463 5.72133L2.52049 1.987L2.52124 1.98777ZM9.98346 12.6667L12.6667 9.97815L10.715 8.022C10.8417 7.6212 10.9108 7.19375 10.9108 6.75111C10.9108 4.8041 9.58429 3.16891 7.78822 2.70193L0.666687 0.666687L2.64949 7.5999C3.04179 9.50277 4.72258 10.9342 6.73725 10.9342C7.19407 10.9342 7.63418 10.8604 8.04548 10.7243L9.98346 12.6667Z" fill="black"/>
</svg>
